# xmcd
#
# Track frame offsets: 
#        150
#        12595
#        23935
#        36280
#        45960
#        55890
#        66270
#        80130
#        93135
#        104925
#        117770
#        128210
#        147382
#        157980
#
# Disc length: 2284 seconds
#
# Revision: 0
# Processed by: cddbd v1.5PL3 Copyright (c) Steve Scherf et al.
# Submitted via: ExactAudioCopy v0.95a4
#
DISCID=c108ea0e
DTITLE=Jackie Wilson - Greatest Hits!
DYEAR=1987
DGENRE=R&B
TTITLE0=Reet Petite
TTITLE1=To Be Loved
TTITLE2=Lonely Teardrops
TTITLE3=That's Why(I Love So)
TTITLE4=I'll Be Satisfied
TTITLE5=Talk That Talk
TTITLE6=Baby Workout
TTITLE7=Doggin' Around
TTITLE8=A Woman,A Lover,A Friend
TTITLE9=Night
TTITLE10=I'm Comin' On Back To You
TTITLE11=Danny Boy
TTITLE12=Whispers(Gettin' Louder)
TTITLE13=Your Love Keeps Lifting Me(Higher and Higher)
EXTD=
EXTT0=
EXTT1=
EXTT2=
EXTT3=
EXTT4=
EXTT5=
EXTT6=
EXTT7=
EXTT8=
EXTT9=
EXTT10=
EXTT11=
EXTT12=
EXTT13=
PLAYORDER=
